<mxfile host="app.diagrams.net" modified="2021-10-21T06:27:50.964Z" agent="5.0 (Windows NT 10.0; Win64; x64) AppleWebKit/537.36 (KHTML, like Gecko) Chrome/94.0.4606.81 Safari/537.36" etag="rGLVgKY0upvb75IQ8FnW" version="15.5.4" type="github">
  <diagram id="YyhnchebPYzs-7T1vajV" name="Page-1">
    <mxGraphModel dx="993" dy="516" grid="1" gridSize="10" guides="1" tooltips="1" connect="1" arrows="1" fold="1" page="1" pageScale="1" pageWidth="850" pageHeight="1100" math="0" shadow="0">
      <root>
        <mxCell id="0" />
        <mxCell id="1" parent="0" />
        <mxCell id="PZZP4P308KYQBllEvIzP-1" value="Customers" style="rounded=0;whiteSpace=wrap;html=1;" parent="1" vertex="1">
          <mxGeometry x="220" y="310" width="120" height="60" as="geometry" />
        </mxCell>
        <mxCell id="PZZP4P308KYQBllEvIzP-2" value="&lt;u&gt;custId&lt;/u&gt;" style="ellipse;whiteSpace=wrap;html=1;" parent="1" vertex="1">
          <mxGeometry x="120" y="200" width="110" height="60" as="geometry" />
        </mxCell>
        <mxCell id="PZZP4P308KYQBllEvIzP-3" value="Name&lt;br&gt;" style="ellipse;whiteSpace=wrap;html=1;" parent="1" vertex="1">
          <mxGeometry x="50" y="250" width="100" height="50" as="geometry" />
        </mxCell>
        <mxCell id="PZZP4P308KYQBllEvIzP-6" value="" style="ellipse;whiteSpace=wrap;html=1;" parent="1" vertex="1">
          <mxGeometry x="20" y="310" width="90" height="60" as="geometry" />
        </mxCell>
        <mxCell id="PZZP4P308KYQBllEvIzP-7" value="phone" style="ellipse;whiteSpace=wrap;html=1;" parent="1" vertex="1">
          <mxGeometry x="25" y="315" width="80" height="50" as="geometry" />
        </mxCell>
        <mxCell id="PZZP4P308KYQBllEvIzP-8" value="Social Security Number" style="ellipse;whiteSpace=wrap;html=1;" parent="1" vertex="1">
          <mxGeometry x="25" y="385" width="100" height="50" as="geometry" />
        </mxCell>
        <mxCell id="PZZP4P308KYQBllEvIzP-10" value="" style="endArrow=none;html=1;rounded=0;entryX=0.5;entryY=1;entryDx=0;entryDy=0;exitX=0;exitY=0.5;exitDx=0;exitDy=0;" parent="1" source="PZZP4P308KYQBllEvIzP-1" target="PZZP4P308KYQBllEvIzP-2" edge="1">
          <mxGeometry width="50" height="50" relative="1" as="geometry">
            <mxPoint x="360" y="440" as="sourcePoint" />
            <mxPoint x="410" y="390" as="targetPoint" />
          </mxGeometry>
        </mxCell>
        <mxCell id="PZZP4P308KYQBllEvIzP-11" value="" style="endArrow=none;html=1;rounded=0;entryX=1;entryY=1;entryDx=0;entryDy=0;exitX=0;exitY=0.5;exitDx=0;exitDy=0;" parent="1" source="PZZP4P308KYQBllEvIzP-1" target="PZZP4P308KYQBllEvIzP-3" edge="1">
          <mxGeometry width="50" height="50" relative="1" as="geometry">
            <mxPoint x="290" y="320" as="sourcePoint" />
            <mxPoint x="325" y="270" as="targetPoint" />
          </mxGeometry>
        </mxCell>
        <mxCell id="PZZP4P308KYQBllEvIzP-12" value="" style="endArrow=none;html=1;rounded=0;entryX=0;entryY=0.5;entryDx=0;entryDy=0;exitX=1;exitY=0.5;exitDx=0;exitDy=0;" parent="1" source="PZZP4P308KYQBllEvIzP-6" target="PZZP4P308KYQBllEvIzP-1" edge="1">
          <mxGeometry width="50" height="50" relative="1" as="geometry">
            <mxPoint x="300" y="330" as="sourcePoint" />
            <mxPoint x="335" y="280" as="targetPoint" />
          </mxGeometry>
        </mxCell>
        <mxCell id="PZZP4P308KYQBllEvIzP-14" value="" style="endArrow=none;html=1;rounded=0;entryX=0;entryY=0.5;entryDx=0;entryDy=0;exitX=1;exitY=0;exitDx=0;exitDy=0;" parent="1" source="PZZP4P308KYQBllEvIzP-8" target="PZZP4P308KYQBllEvIzP-1" edge="1">
          <mxGeometry width="50" height="50" relative="1" as="geometry">
            <mxPoint x="310" y="340" as="sourcePoint" />
            <mxPoint x="345" y="290" as="targetPoint" />
          </mxGeometry>
        </mxCell>
        <mxCell id="PZZP4P308KYQBllEvIzP-15" value="" style="endArrow=none;html=1;rounded=0;entryX=0;entryY=0.5;entryDx=0;entryDy=0;exitX=0.5;exitY=0;exitDx=0;exitDy=0;" parent="1" source="PZZP4P308KYQBllEvIzP-16" target="PZZP4P308KYQBllEvIzP-1" edge="1">
          <mxGeometry width="50" height="50" relative="1" as="geometry">
            <mxPoint x="166.19999999999993" y="421.05000000000007" as="sourcePoint" />
            <mxPoint x="355" y="300" as="targetPoint" />
          </mxGeometry>
        </mxCell>
        <mxCell id="PZZP4P308KYQBllEvIzP-16" value="" style="ellipse;whiteSpace=wrap;html=1;" parent="1" vertex="1">
          <mxGeometry x="120" y="430" width="90" height="60" as="geometry" />
        </mxCell>
        <mxCell id="PZZP4P308KYQBllEvIzP-17" value="address" style="ellipse;whiteSpace=wrap;html=1;" parent="1" vertex="1">
          <mxGeometry x="125" y="435" width="80" height="50" as="geometry" />
        </mxCell>
        <mxCell id="PZZP4P308KYQBllEvIzP-18" value="own" style="rhombus;whiteSpace=wrap;html=1;" parent="1" vertex="1">
          <mxGeometry x="425" y="300" width="80" height="80" as="geometry" />
        </mxCell>
        <mxCell id="PZZP4P308KYQBllEvIzP-19" value="" style="endArrow=none;html=1;rounded=0;exitX=1;exitY=0.5;exitDx=0;exitDy=0;" parent="1" source="PZZP4P308KYQBllEvIzP-1" target="PZZP4P308KYQBllEvIzP-18" edge="1">
          <mxGeometry width="50" height="50" relative="1" as="geometry">
            <mxPoint x="460" y="370" as="sourcePoint" />
            <mxPoint x="510" y="320" as="targetPoint" />
          </mxGeometry>
        </mxCell>
        <mxCell id="PZZP4P308KYQBllEvIzP-20" value="" style="endArrow=none;html=1;rounded=0;entryX=1;entryY=0.5;entryDx=0;entryDy=0;exitX=0;exitY=0.5;exitDx=0;exitDy=0;" parent="1" source="PZZP4P308KYQBllEvIzP-21" target="PZZP4P308KYQBllEvIzP-18" edge="1">
          <mxGeometry width="50" height="50" relative="1" as="geometry">
            <mxPoint x="670" y="340" as="sourcePoint" />
            <mxPoint x="510" y="320" as="targetPoint" />
          </mxGeometry>
        </mxCell>
        <mxCell id="PZZP4P308KYQBllEvIzP-21" value="Accounts" style="rounded=0;whiteSpace=wrap;html=1;" parent="1" vertex="1">
          <mxGeometry x="580" y="310" width="120" height="60" as="geometry" />
        </mxCell>
        <mxCell id="PZZP4P308KYQBllEvIzP-22" value="balance" style="ellipse;whiteSpace=wrap;html=1;" parent="1" vertex="1">
          <mxGeometry x="700" y="380" width="120" height="80" as="geometry" />
        </mxCell>
        <mxCell id="PZZP4P308KYQBllEvIzP-23" value="type" style="ellipse;whiteSpace=wrap;html=1;" parent="1" vertex="1">
          <mxGeometry x="790" y="300" width="120" height="80" as="geometry" />
        </mxCell>
        <mxCell id="PZZP4P308KYQBllEvIzP-24" value="&lt;u&gt;number&lt;/u&gt;" style="ellipse;whiteSpace=wrap;html=1;" parent="1" vertex="1">
          <mxGeometry x="700" y="220" width="120" height="80" as="geometry" />
        </mxCell>
        <mxCell id="PZZP4P308KYQBllEvIzP-25" value="" style="endArrow=none;html=1;rounded=0;entryX=0.5;entryY=1;entryDx=0;entryDy=0;exitX=1;exitY=0.5;exitDx=0;exitDy=0;" parent="1" source="PZZP4P308KYQBllEvIzP-21" target="PZZP4P308KYQBllEvIzP-24" edge="1">
          <mxGeometry width="50" height="50" relative="1" as="geometry">
            <mxPoint x="460" y="370" as="sourcePoint" />
            <mxPoint x="510" y="320" as="targetPoint" />
          </mxGeometry>
        </mxCell>
        <mxCell id="PZZP4P308KYQBllEvIzP-26" value="" style="endArrow=none;html=1;rounded=0;entryX=0;entryY=0.5;entryDx=0;entryDy=0;exitX=1;exitY=0.5;exitDx=0;exitDy=0;" parent="1" source="PZZP4P308KYQBllEvIzP-21" target="PZZP4P308KYQBllEvIzP-23" edge="1">
          <mxGeometry width="50" height="50" relative="1" as="geometry">
            <mxPoint x="710" y="349.9999999999999" as="sourcePoint" />
            <mxPoint x="780" y="300" as="targetPoint" />
          </mxGeometry>
        </mxCell>
        <mxCell id="PZZP4P308KYQBllEvIzP-27" value="" style="endArrow=none;html=1;rounded=0;entryX=0.5;entryY=0;entryDx=0;entryDy=0;exitX=1;exitY=0.5;exitDx=0;exitDy=0;" parent="1" source="PZZP4P308KYQBllEvIzP-21" target="PZZP4P308KYQBllEvIzP-22" edge="1">
          <mxGeometry width="50" height="50" relative="1" as="geometry">
            <mxPoint x="720" y="359.9999999999999" as="sourcePoint" />
            <mxPoint x="790" y="310" as="targetPoint" />
          </mxGeometry>
        </mxCell>
        <mxCell id="t-8EiWlDzzIYvT2yjJAf-1" value="1" style="text;html=1;align=center;verticalAlign=middle;resizable=0;points=[];autosize=1;strokeColor=none;fillColor=none;" vertex="1" parent="1">
          <mxGeometry x="350" y="320" width="20" height="20" as="geometry" />
        </mxCell>
        <mxCell id="t-8EiWlDzzIYvT2yjJAf-2" value="1" style="text;html=1;align=center;verticalAlign=middle;resizable=0;points=[];autosize=1;strokeColor=none;fillColor=none;" vertex="1" parent="1">
          <mxGeometry x="560" y="320" width="20" height="20" as="geometry" />
        </mxCell>
      </root>
    </mxGraphModel>
  </diagram>
</mxfile>
